<svg width="67" height="59" viewBox="0 0 67 59" fill="none" xmlns="http://www.w3.org/2000/svg">
<path d="M40.1254 2.82657C36.1592 0.233158 31.0341 0.23311 27.0678 2.82638L1.27167 19.6928C0.603301 20.1298 0.197868 20.8722 0.191483 21.6708C0.190777 21.759 0.194957 21.8467 0.203833 21.9334C0.196388 22.0102 0.192571 22.0881 0.192571 22.1669V41.255C0.192571 42.5726 1.26084 43.6411 2.57859 43.6411C3.89635 43.6411 4.96461 42.5726 4.96461 41.255V26.187L9.73666 29.4172V46.9815C9.73666 47.5479 9.94086 48.0986 10.3075 48.53L10.3112 48.5343L10.3206 48.5453L10.3486 48.5777L10.4406 48.6818C10.5179 48.7677 10.6272 48.8874 10.7676 49.0349C11.0482 49.3303 11.4545 49.7402 11.9808 50.226C13.0318 51.1962 14.5713 52.4784 16.5559 53.7587C20.5198 56.3161 26.333 58.9116 33.5974 58.9116C40.8616 58.9116 46.6747 56.3156 50.6383 53.7587C52.623 52.4784 54.1625 51.1962 55.2133 50.226C55.7396 49.7402 56.1457 49.3303 56.4263 49.0349C56.5666 48.887 56.6759 48.7677 56.7532 48.6818L56.8453 48.5777L56.8735 48.5453L56.8825 48.5343L56.8892 48.5267C57.2557 48.0953 57.4571 47.5479 57.4571 46.9815V29.4159L65.9513 23.6657C66.6127 23.218 67.0079 22.6698 66.9998 21.6708C66.9936 20.8722 66.5879 20.1299 65.9198 19.6928L40.1254 2.82657ZM52.6851 32.6463V46.0376C52.4947 46.2294 52.258 46.4594 51.9764 46.7195C51.0888 47.5389 49.765 48.6431 48.0514 49.7488C44.6184 51.9635 39.6947 54.1396 33.5974 54.1396C27.4999 54.1396 22.5758 51.9635 19.1429 49.7488C17.429 48.6431 16.1051 47.5389 15.2174 46.7195C14.9358 46.4594 14.6991 46.2294 14.5087 46.0376V32.6474L26.909 41.0412C30.9483 43.7752 36.2451 43.7752 40.2842 41.0408L52.6851 32.6463ZM12.1227 46.9815L10.3075 48.53C10.3075 48.53 10.3047 48.5267 12.1227 46.9815ZM29.6793 6.82044C32.059 5.26447 35.1341 5.26451 37.5139 6.82058L60.307 21.6897L37.6091 37.0892C35.1856 38.7298 32.0076 38.7298 29.584 37.0893L6.88484 21.7243L29.6793 6.82044Z" fill="white"/>
</svg>
