<svg width="51" height="53" viewBox="0 0 51 53" fill="none" xmlns="http://www.w3.org/2000/svg">
<path fill-rule="evenodd" clip-rule="evenodd" d="M43.125 1.89014C46.3697 1.89014 49 4.52046 49 7.76514V37.1401C49 40.3848 46.3697 43.0151 43.125 43.0151L34.3154 43.0122L27.5771 49.7505C26.5182 50.8094 24.852 50.8909 23.6996 49.9949L23.4229 49.7505L16.6846 43.0122L7.875 43.0151C4.63033 43.0151 2 40.3848 2 37.1401V7.76514C2 4.52046 4.63033 1.89014 7.875 1.89014H43.125Z" stroke="#535A61" stroke-width="3" stroke-linecap="round" stroke-linejoin="round"/>
<path fill-rule="evenodd" clip-rule="evenodd" d="M25.4966 25.3903C26.9653 25.3903 28.4341 23.9215 28.4341 22.4528C28.4341 20.984 26.9653 19.5153 25.4966 19.5153C24.0278 19.5153 22.5625 20.984 22.5625 22.4528C22.5625 23.9215 24.0278 25.3903 25.4966 25.3903ZM13.7466 25.3903C15.2153 25.3903 16.6841 23.9215 16.6841 22.4528C16.6841 20.984 15.2153 19.5153 13.7466 19.5153C12.2778 19.5153 10.8125 20.984 10.8125 22.4528C10.8125 23.9215 12.2778 25.3903 13.7466 25.3903ZM37.2466 25.3903C38.7153 25.3903 40.1841 23.9215 40.1841 22.4528C40.1841 20.984 38.7153 19.5153 37.2466 19.5153C35.7778 19.5153 34.3125 20.984 34.3125 22.4528C34.3125 23.9215 35.7778 25.3903 37.2466 25.3903Z" fill="#535A61"/>
</svg>
