<svg width="53" height="49" viewBox="0 0 53 49" fill="none" xmlns="http://www.w3.org/2000/svg">
<g filter="url(#filter0_d_10_251)">
<path d="M10.1 39.0001H42.9C45.1644 39.0001 47 37.1645 47 34.9001V13.5801C47 11.3157 45.1644 9.4801 42.9 9.4801H36.75L31.625 2.1001H21.375L16.25 9.4801H10.1C7.83563 9.4801 6 11.3157 6 13.5801V34.9001C6 37.1645 7.83563 39.0001 10.1 39.0001Z" stroke="white" stroke-width="3" stroke-linecap="round" stroke-linejoin="round"/>
<path d="M26.4998 30.8001C31.0285 30.8001 34.6998 27.1289 34.6998 22.6001C34.6998 18.0714 31.0285 14.4001 26.4998 14.4001C21.9711 14.4001 18.2998 18.0714 18.2998 22.6001C18.2998 27.1289 21.9711 30.8001 26.4998 30.8001Z" stroke="white" stroke-width="3" stroke-linecap="round" stroke-linejoin="round"/>
</g>
<defs>
<filter id="filter0_d_10_251" x="0.5" y="0.600098" width="52" height="47.8999" filterUnits="userSpaceOnUse" color-interpolation-filters="sRGB">
<feFlood flood-opacity="0" result="BackgroundImageFix"/>
<feColorMatrix in="SourceAlpha" type="matrix" values="0 0 0 0 0 0 0 0 0 0 0 0 0 0 0 0 0 0 127 0" result="hardAlpha"/>
<feOffset dy="4"/>
<feGaussianBlur stdDeviation="2"/>
<feComposite in2="hardAlpha" operator="out"/>
<feColorMatrix type="matrix" values="0 0 0 0 0 0 0 0 0 0 0 0 0 0 0 0 0 0 0.25 0"/>
<feBlend mode="normal" in2="BackgroundImageFix" result="effect1_dropShadow_10_251"/>
<feBlend mode="normal" in="SourceGraphic" in2="effect1_dropShadow_10_251" result="shape"/>
</filter>
</defs>
</svg>
