<svg width="46" height="46" viewBox="0 0 46 46" fill="none" xmlns="http://www.w3.org/2000/svg">
<path d="M45.736 29.9305C46.3493 31.3681 45.8938 33.1763 44.3709 34.0637L24.6524 45.5537C23.6312 46.1488 22.3688 46.1488 21.3476 45.5537L1.62907 34.0637C0.106004 33.1763 -0.34941 31.3681 0.264175 29.9305L21.3909 41.8141C22.39 42.3761 23.6101 42.3761 24.6091 41.8141L45.736 29.9305ZM45.736 21.8833C46.3493 23.3211 45.8938 25.1294 44.3709 26.0168L24.6524 37.5064C23.6312 38.1015 22.3688 38.1015 21.3476 37.5064L1.62907 26.0168C0.106004 25.1294 -0.34941 23.3211 0.264175 21.8833L21.3909 33.7672C22.39 34.3291 23.6101 34.3291 24.6091 33.7672L45.736 21.8833ZM24.6586 0.449819L44.3771 11.9958C46.5436 13.2645 46.5403 16.3967 44.3709 17.6608L24.6524 29.1504C23.6312 29.7455 22.3688 29.7455 21.3476 29.1504L1.62907 17.6608C-0.540363 16.3967 -0.543677 13.2645 1.62307 11.9958L21.3415 0.449819C22.3658 -0.14994 23.6341 -0.14994 24.6586 0.449819ZM21.3415 4.2517L3.28156 14.8265L21.3476 25.3534C22.3688 25.9485 23.6312 25.9485 24.6524 25.3534L42.7186 14.8265L24.6586 4.2517C23.6341 3.65194 22.3658 3.65194 21.3415 4.2517Z" fill="white"/>
</svg>
