<svg width="49" height="35" viewBox="0 0 49 35" fill="none" xmlns="http://www.w3.org/2000/svg">
<path d="M16.6288 0C13.6526 0 11.2788 2.17898 10.7709 5.00753C7.91284 5.72796 5.4327 7.58806 4.34616 10.5347H4.29892L1.08654 19.5577C0.401547 20.9572 0 22.528 0 24.1873C0 30.0157 4.75361 34.7693 10.582 34.7693C15.8316 34.7693 20.2073 30.9132 21.0222 25.888C21.843 26.697 22.9591 27.2107 24.1873 27.2107C25.4156 27.2107 26.5317 26.697 27.3525 25.888C28.1674 30.9132 32.5431 34.7693 37.7927 34.7693C43.621 34.7693 48.3746 30.0157 48.3746 24.1873C48.3746 22.717 48.0735 21.3056 47.5243 20.0301L44.0757 10.393L44.0285 10.3457V10.2985C42.9242 7.61759 40.4795 5.74567 37.6037 5.00753C37.0959 2.17898 34.722 0 31.7459 0C28.9409 0 26.6616 1.94278 25.9825 4.53512H22.3922C21.7131 1.94278 19.4337 0 16.6288 0ZM16.6288 3.02342C18.4298 3.02342 19.6522 4.24577 19.6522 6.04683V7.55854H28.7224V6.04683C28.7224 4.24577 29.9448 3.02342 31.7459 3.02342C33.5469 3.02342 34.7693 4.24577 34.7693 6.04683V7.41682L36.1393 7.55854C38.3832 7.79474 40.3201 9.3596 41.194 11.385C41.2058 11.4146 41.2295 11.45 41.2413 11.4795L42.3751 14.6919C40.9874 14.0187 39.4343 13.6054 37.7927 13.6054C33.3698 13.6054 29.5905 16.3512 28.0138 20.2191C27.2048 18.9613 25.7758 18.1405 24.1873 18.1405C22.5988 18.1405 21.1698 18.9613 20.3608 20.2191C18.7841 16.3512 15.0049 13.6054 10.582 13.6054C8.96395 13.6054 7.42272 13.9892 6.04683 14.6447L7.18061 11.574V11.5268C8.06047 9.18835 9.91468 7.80065 12.2354 7.55854L13.6054 7.41682V6.04683C13.6054 4.24577 14.8277 3.02342 16.6288 3.02342ZM10.582 16.6288C14.7746 16.6288 18.1405 19.9947 18.1405 24.1873C18.1405 28.3799 14.7746 31.7459 10.582 31.7459C6.38933 31.7459 3.02342 28.3799 3.02342 24.1873C3.02342 23.1185 3.28914 22.1323 3.68479 21.2111C3.70841 21.1521 3.70841 21.0812 3.73203 21.0222C4.92486 18.4298 7.52901 16.6288 10.582 16.6288ZM37.7927 16.6288C41.9853 16.6288 45.3512 19.9947 45.3512 24.1873C45.3512 28.3799 41.9853 31.7459 37.7927 31.7459C33.6001 31.7459 30.2342 28.3799 30.2342 24.1873C30.2342 19.9947 33.6001 16.6288 37.7927 16.6288ZM24.1873 21.1639C25.0377 21.1639 25.699 21.8253 25.699 22.6756C25.699 23.526 25.0377 24.1873 24.1873 24.1873C23.337 24.1873 22.6756 23.526 22.6756 22.6756C22.6756 21.8253 23.337 21.1639 24.1873 21.1639Z" fill="white"/>
</svg>
